<svg viewBox="0 0 1200 800" preserveAspectRatio="xMidYMid slice" xmlns="http://www.w3.org/2000/svg">
  <!-- Row 0 (y: 0-133) -->
  <circle cx="47" cy="23" r="1.0" fill="white" opacity="0.9"/>
  <circle cx="163" cy="45" r="0.5" fill="white" opacity="0.7"/>
  <circle cx="287" cy="12" r="1.5" fill="white" opacity="0.8"/>
  <circle cx="391" cy="78" r="0.5" fill="white" opacity="0.5"/>
  <circle cx="523" cy="34" r="2.0" fill="white" opacity="1.0"/>
  <circle cx="647" cy="91" r="0.5" fill="white" opacity="0.6"/>
  <circle cx="758" cy="28" r="1.5" fill="white" opacity="0.9"/>
  <circle cx="889" cy="67" r="0.5" fill="white" opacity="0.4"/>
  <circle cx="974" cy="45" r="1.0" fill="white" opacity="0.8"/>
  <circle cx="1143" cy="19" r="0.5" fill="white" opacity="0.7"/>
  <!-- Row 1 (y: 133-266) -->
  <circle cx="82" cy="178" r="0.5" fill="white" opacity="0.6"/>
  <circle cx="195" cy="210" r="1.5" fill="white" opacity="0.9"/>
  <circle cx="334" cy="157" r="0.5" fill="white" opacity="0.5"/>
  <circle cx="467" cy="243" r="1.0" fill="white" opacity="0.7"/>
  <circle cx="571" cy="189" r="2.0" fill="white" opacity="0.8"/>
  <circle cx="698" cy="173" r="0.5" fill="white" opacity="1.0"/>
  <circle cx="812" cy="234" r="1.5" fill="white" opacity="0.6"/>
  <circle cx="951" cy="198" r="0.5" fill="white" opacity="0.9"/>
  <circle cx="1034" cy="165" r="1.0" fill="white" opacity="0.7"/>
  <circle cx="1165" cy="248" r="0.5" fill="white" opacity="0.5"/>
  <!-- Row 2 (y: 266-399) -->
  <circle cx="28" cy="312" r="1.0" fill="white" opacity="0.8"/>
  <circle cx="167" cy="356" r="0.5" fill="white" opacity="0.6"/>
  <circle cx="256" cy="290" r="2.0" fill="white" opacity="0.9"/>
  <circle cx="423" cy="337" r="0.5" fill="white" opacity="0.7"/>
  <circle cx="508" cy="311" r="1.5" fill="white" opacity="0.5"/>
  <circle cx="623" cy="378" r="0.5" fill="white" opacity="1.0"/>
  <circle cx="774" cy="299" r="1.0" fill="white" opacity="0.8"/>
  <circle cx="893" cy="348" r="0.5" fill="white" opacity="0.6"/>
  <circle cx="1012" cy="382" r="1.5" fill="white" opacity="0.7"/>
  <circle cx="1178" cy="321" r="0.5" fill="white" opacity="0.9"/>
  <!-- Row 3 (y: 400-533) -->
  <circle cx="58" cy="445" r="0.5" fill="white" opacity="0.7"/>
  <circle cx="213" cy="478" r="1.5" fill="white" opacity="0.5"/>
  <circle cx="312" cy="419" r="0.5" fill="white" opacity="0.9"/>
  <circle cx="498" cy="462" r="1.0" fill="white" opacity="0.6"/>
  <circle cx="587" cy="437" r="0.5" fill="white" opacity="0.8"/>
  <circle cx="714" cy="511" r="2.0" fill="white" opacity="0.7"/>
  <circle cx="823" cy="453" r="0.5" fill="white" opacity="1.0"/>
  <circle cx="967" cy="428" r="1.5" fill="white" opacity="0.5"/>
  <circle cx="1089" cy="497" r="0.5" fill="white" opacity="0.8"/>
  <circle cx="1134" cy="441" r="1.0" fill="white" opacity="0.6"/>
  <!-- Row 4 (y: 533-666, sparser) -->
  <circle cx="93" cy="568" r="0.5" fill="white" opacity="0.5"/>
  <circle cx="278" cy="612" r="1.0" fill="white" opacity="0.7"/>
  <circle cx="445" cy="589" r="0.5" fill="white" opacity="0.6"/>
  <circle cx="634" cy="647" r="1.5" fill="white" opacity="0.4"/>
  <circle cx="789" cy="571" r="0.5" fill="white" opacity="0.5"/>
  <circle cx="912" cy="634" r="1.0" fill="white" opacity="0.6"/>
  <!-- Row 5 (y: 666-800, sparsest) -->
  <circle cx="134" cy="712" r="0.5" fill="white" opacity="0.4"/>
  <circle cx="367" cy="745" r="1.0" fill="white" opacity="0.5"/>
  <circle cx="578" cy="723" r="0.5" fill="white" opacity="0.4"/>
  <circle cx="891" cy="758" r="1.5" fill="white" opacity="0.5"/>
  <circle cx="1067" cy="701" r="0.5" fill="white" opacity="0.4"/>
  <!-- Cluster stars (larger, dimmer) -->
  <circle cx="350" cy="100" r="2.5" fill="white" opacity="0.5"/>
  <circle cx="750" cy="220" r="2.5" fill="white" opacity="0.4"/>
  <circle cx="450" cy="380" r="2.0" fill="white" opacity="0.6"/>
  <circle cx="100" cy="280" r="2.0" fill="white" opacity="0.5"/>
  <circle cx="900" cy="150" r="2.5" fill="white" opacity="0.45"/>
  <!-- Extra scatter (upper-mid area) -->
  <circle cx="520" cy="290" r="0.5" fill="white" opacity="0.8"/>
  <circle cx="1100" cy="390" r="0.5" fill="white" opacity="0.7"/>
  <circle cx="200" cy="130" r="0.5" fill="white" opacity="0.9"/>
  <circle cx="680" cy="400" r="1.0" fill="white" opacity="0.6"/>
  <circle cx="1050" cy="250" r="0.5" fill="white" opacity="0.8"/>
  <circle cx="40" cy="490" r="0.5" fill="white" opacity="0.5"/>
  <circle cx="300" cy="360" r="0.5" fill="white" opacity="0.7"/>
  <circle cx="800" cy="460" r="0.5" fill="white" opacity="0.6"/>
  <circle cx="1140" cy="530" r="0.5" fill="white" opacity="0.5"/>
</svg>
